<?xml version="1.0" standalone="no"?><!DOCTYPE svg PUBLIC "-//W3C//DTD SVG 1.1//EN" "http://www.w3.org/Graphics/SVG/1.1/DTD/svg11.dtd"><svg class="icon" width="300px" height="300.00px" viewBox="0 0 1024 1024" version="1.1" xmlns="http://www.w3.org/2000/svg"><path d="M878.592 222.208 503.808 222.208c-84.992 0-84.992-84.992-166.912-84.992L128 137.216c-47.104 0-84.992 38.912-84.992 84.992l0 166.912 0 417.792c0 47.104 37.888 84.992 84.992 84.992l750.592 0c47.104 0 84.992-38.912 84.992-84.992L963.584 303.104C960.512 256 925.696 222.208 878.592 222.208zM921.6 801.792c0 21.504-17.408 43.008-43.008 43.008L128 844.8c-21.504 0-43.008-17.408-43.008-43.008L84.992 388.096l831.488 0 0 413.696L921.6 801.792zM921.6 346.112 84.992 346.112 84.992 222.208c0-21.504 17.408-43.008 43.008-43.008l208.896 0c64.512 0 64.512 84.992 166.912 84.992l375.808 0c21.504 0 43.008 17.408 43.008 43.008L922.624 346.112z" fill="#e6e6e6" /></svg>