<?xml version="1.0" standalone="no"?><!DOCTYPE svg PUBLIC "-//W3C//DTD SVG 1.1//EN" "http://www.w3.org/Graphics/SVG/1.1/DTD/svg11.dtd"><svg class="icon" width="300px" height="300.00px" viewBox="0 0 1024 1024" version="1.1" xmlns="http://www.w3.org/2000/svg"><path d="M670.6 625H524.2c-20.2 0-36.6 16.4-36.6 36.6s16.4 36.6 36.6 36.6h146.4c20.2 0 36.6-16.4 36.6-36.6S690.8 625 670.6 625zM524.2 527.4h146.4c20.2 0 36.6-16.4 36.6-36.6 0-20.2-16.4-36.6-36.6-36.6H524.2c-20.2 0-36.6 16.4-36.6 36.6 0 20.2 16.4 36.6 36.6 36.6z" fill="#e6e6e6" /><path d="M817.9 210.1h-86.2V137c0-45.3-52.1-73.2-95.8-73.2H200.8c-43.7 0-79.1 36.7-79.1 82.1v639.9c0 45.3 35.4 82.1 79.1 82.1l91.9-31.8v72.7c0 45.4 37.9 82.2 84.5 82.2l102.4-41.1L585.4 991 691 949.9 817.9 991c46.7 0 84.5-36.8 84.5-82.2V292.3c0-45.4-37.8-82.2-84.5-82.2z m-525.2 82.2v441c-1.7 0.4-3.5 0.7-5.2 1.3l-68.3 23.6V161.5H634v48.7H377.2c-46.7-0.1-84.5 36.7-84.5 82.1z m512.1 591.9l-83.7-27.1c-9.8-3.2-19.9-4.8-30.1-4.8-12 0-24 2.2-35.4 6.6l-70.3 27.3-70.3-27.3c-11.4-4.4-23.4-6.6-35.4-6.6-12.3 0-24.7 2.3-36.3 7l-53 21.3V307.7h414.5v576.5z" fill="#e6e6e6" /></svg>