<?xml version="1.0" standalone="no"?><!DOCTYPE svg PUBLIC "-//W3C//DTD SVG 1.1//EN" "http://www.w3.org/Graphics/SVG/1.1/DTD/svg11.dtd"><svg class="icon" width="300px" height="300.00px" viewBox="0 0 1024 1024" version="1.1" xmlns="http://www.w3.org/2000/svg"><path d="M10.432 1024.064L6.4-0.128h935.872v1023.936l-468.544-245.696-463.296 245.952z m462.912-365.76l362.944 190.208V105.856H112.832l2.88 742.336 357.632-189.888z" fill="#e6e6e6" /><path d="M199.104 304.704h46.528l47.296 90.944 18.624 42.176h1.28c-2.56-20.224-6.144-47.552-6.144-70.272v-62.848h43.392v190.08h-46.464l-47.04-91.712-18.624-41.728h-1.28c2.048 21.248 5.888 47.296 5.888 70.336v63.104h-43.456v-190.08zM394.176 304.704h120.64v37.76h-74.88v35.264h63.616v38.336h-63.616v40.384h77.696v38.336H394.176v-190.08zM536.64 304.704h46.72l12.032 86.592 7.68 60.288h1.024c3.648-20.16 7.424-40.64 11.264-60.288l19.392-86.592h38.4l19.968 86.592c3.84 19.392 7.104 39.872 10.944 60.288h1.344c2.304-20.416 4.8-40.64 7.104-60.288l12.288-86.592h43.392l-32.96 190.08h-57.472l-17.28-82.752a524.992 524.992 0 0 1-7.36-44.16h-1.28c-2.304 14.272-4.608 29.568-7.424 44.16L627.84 494.784h-56.448l-34.752-190.08z" fill="#e6e6e6" /></svg>