<?xml version="1.0" standalone="no"?><!DOCTYPE svg PUBLIC "-//W3C//DTD SVG 1.1//EN" "http://www.w3.org/Graphics/SVG/1.1/DTD/svg11.dtd"><svg class="icon" width="16px" height="16.00px" viewBox="0 0 1024 1024" version="1.1" xmlns="http://www.w3.org/2000/svg"><path d="M575.99996 576.00028l319.9998-319.9998-127.99992-127.99992L448.00004 448.00036 575.99996 576.00028zM959.99972 192.00052l63.99996 0c0-193.983879-191.99988-191.99988-191.99988-191.99988l0 63.99996 63.99996 63.99996L959.99972 192.00052zM895.99976 832.00012c0 35.327978-28.671982 63.99996-63.99996 63.99996L192.0002 896.00008c-35.327978 0-63.99996-28.671982-63.99996-63.99996L128.00024 192.00052c0-35.327978 28.671982-63.99996 63.99996-63.99996l383.99976 0 127.99992-127.99992L128.00024 0.00064C57.280284 0.00064 0.00032 57.280604 0.00032 128.00056l0 767.99952c0 70.719956 57.279964 127.99992 127.99992 127.99992l767.99952 0c70.719956 0 127.99992-57.279964 127.99992-127.99992L1023.99968 320.00044l-127.99992 127.99992L895.99976 832.00012zM320.00012 512.00032l0 191.99988 191.99988 0 0-63.99996L384.00008 512.00032 320.00012 512.00032z" fill="#42b983" /></svg>