<?xml version="1.0" standalone="no"?><!DOCTYPE svg PUBLIC "-//W3C//DTD SVG 1.1//EN" "http://www.w3.org/Graphics/SVG/1.1/DTD/svg11.dtd"><svg class="icon" width="300px" height="300.00px" viewBox="0 0 1024 1024" version="1.1" xmlns="http://www.w3.org/2000/svg"><path d="M120.8 638.3h202.1c27.9 0 50.5 22.6 50.5 50.5s-22.6 50.5-50.5 50.5H120.8c-27.9 0-50.5-22.6-50.5-50.5s22.6-50.5 50.5-50.5zM120.8 461.5h202.1c27.9 0 50.5 22.6 50.5 50.5s-22.6 50.5-50.5 50.5H120.8c-27.9 0-50.5-22.6-50.5-50.5-0.1-27.9 22.6-50.5 50.5-50.5zM120.8 284.7h202.1c27.9 0 50.5 22.6 50.5 50.5s-22.6 50.5-50.5 50.5H120.8c-27.9 0-50.5-22.6-50.5-50.5-0.1-27.9 22.6-50.5 50.5-50.5z" fill="#e6e6e6" /><path d="M651.3 133.1h75.8V891h-75.8V133.1z" fill="#e6e6e6" /><path d="M853.1 133.1V891h-581V133.1h581m0-101.1h-581c-55.8 0-101 45.2-101 101v758c0 55.8 45.2 101 101 101h581c55.8 0 101-45.2 101-101V133.1c0.1-55.8-45.2-101.1-101-101.1z" fill="#e6e6e6" /></svg>