<?xml version="1.0" standalone="no"?><!DOCTYPE svg PUBLIC "-//W3C//DTD SVG 1.1//EN" "http://www.w3.org/Graphics/SVG/1.1/DTD/svg11.dtd"><svg class="icon" width="300px" height="300.00px" viewBox="0 0 1024 1024" version="1.1" xmlns="http://www.w3.org/2000/svg"><path d="M486.682925 117.233108l28.911998 0c50.172383 2.329621 100.159892 12.047232 146.79947 30.950016 97.253662 38.479711 179.329215 113.515037 226.575582 206.803387 30.032838 58.463562 45.930259 123.86402 47.336906 189.517707l0 15.587232c-1.388059 64.807461-16.85777 129.354498-46.162902 187.246047-28.538851 57.016143-69.939981 107.508309-120.025223 146.958762-51.245456 40.415398-111.719054 69.089158-175.503409 82.971945-25.905836 5.844038-52.385882 8.563194-78.850739 10.145521l-28.941178 0c-34.693278-1.834556-69.312206-6.508987-102.762927-16.042923-81.006078-22.449579-154.969731-69.240255-210.210677-132.563122-38.852858-44.206228-68.512349-96.472392-86.647853-152.469026-13.275-40.72219-20.038414-83.434631-21.110287-126.228617l0-15.553455c1.54855-79.43914 24.916507-158.362031 67.745269-225.345616 45.414209-71.568676 112.125779-129.46962 189.579265-163.988616C374.661675 131.918151 430.543388 119.766191 486.682925 117.233108L486.682925 117.233108zM403.62264 210.045981c-27.56591 34.639914-45.566506 75.701474-60.181797 117.203736 20.512892 5.151108 41.570815 7.392588 62.444063 10.539454 25.882452 2.66919 51.837054 5.027991 77.893988 5.231453-0.019787-63.104415 0.01499-126.207631-0.019787-189.331633C450.635365 160.673256 424.000624 184.109965 403.62264 210.045981L403.62264 210.045981zM518.617673 343.006634c35.217722-0.631172 70.420255-3.553791 105.210068-9.194366 11.829779-1.513574 23.557428-3.723475 35.130382-6.596128-17.096209-48.576265-39.124873-96.943272-75.259774-134.470829-17.660027-18.50985-39.681696-33.684362-65.026112-39.057519C518.569906 216.796804 518.658246 279.901019 518.617673 343.006634L518.617673 343.006634zM369.240751 174.391155c-61.525686 21.446259-117.651432 58.240313-161.822884 106.151629 32.308895 17.067029 66.929022 29.678278 102.281653 38.736537 18.460884-55.643274 44.362122-110.676162 86.088832-152.774819C386.711306 168.289092 377.992417 171.449949 369.240751 174.391155L369.240751 174.391155zM606.43973 166.249875c8.684112 8.005172 15.669776 17.572686 23.251835 26.562591 28.43652 37.984447 48.324036 81.667629 63.090425 126.569186 35.332644-9.212954 69.855238-21.891558 102.30144-38.73194C744.570277 225.904029 678.486282 185.420077 606.43973 166.249875L606.43973 166.249875zM184.213999 307.755334c-50.003897 64.905194-79.67618 145.260314-82.856823 227.199958 57.992681-0.102331 115.985362-0.034976 173.973646-0.034976 1.12064-61.390777 8.994502-122.708404 24.441029-182.163493C259.710812 342.225363 220.605725 327.603077 184.213999 307.755334L184.213999 307.755334zM702.621519 352.757822c15.449925 59.45409 23.31919 120.772716 24.425839 182.144906 58.026458-0.01519 116.049518 0 174.075777 0-3.412087-81.919858-32.866916-162.323944-83.011518-227.181371C781.811828 327.705408 742.614803 342.123033 702.621519 352.757822L702.621519 352.757822zM310.106444 534.765621c57.89155 0.305793 115.7821 0.053564 173.667853 0.137107l0-157.091292c-50.390835-0.932368-100.821443-6.169617-150.090639-16.9613C318.708012 417.566482 311.398168 476.166151 310.106444 534.765621L310.106444 534.765621zM518.617673 377.796446c0 52.381086 0 104.743784 0.019787 157.106482 57.89155-0.102331 115.777503 0.188272 173.667853-0.149898-1.305515-58.605465-8.616558-117.204935-23.592404-173.935272C619.460102 371.674597 569.014304 376.859481 518.617673 377.796446L518.617673 377.796446zM101.324598 569.725318c3.261988 81.939645 32.872912 162.294764 82.907988 227.199958 36.353352-19.902506 75.512003-34.430656 115.540264-45.036265-15.465115-59.449293-23.266825-120.786707-24.474806-182.163493C217.30996 569.758895 159.317279 569.758895 101.324598 569.725318L101.324598 569.725318zM310.12623 569.861226c1.291524 58.619256 8.513228 117.292276 23.638773 174.003825 49.207437-10.980155 99.651836-16.042923 149.994104-17.014864 0.019787-52.361499 0.019787-104.743784 0.019787-157.105283C425.888544 569.827649 367.998193 569.59041 310.12623 569.861226L310.12623 569.861226zM518.617673 569.745105l0 157.091292c50.430408 0.917178 100.859817 6.218384 150.149998 16.944911 14.751399-56.817478 22.553109-115.436734 23.320389-174.124743C634.264864 569.861226 576.441868 569.697337 518.617673 569.745105L518.617673 569.745105zM727.032368 569.745105c-1.01831 61.37099-8.994502 122.688617-24.392262 182.143707 40.009474 10.552246 79.153134 25.086192 115.491497 45.022475 50.137407-64.841238 79.579645-145.246323 82.991732-227.151191C843.096876 569.725318 785.054029 569.758895 727.032368 569.745105L727.032368 569.745105zM343.47462 777.315572c16.941514 48.691387 39.138864 97.093171 75.293551 134.654504 17.64024 18.474874 39.668904 33.635395 64.991136 38.970178 0.053364-63.085828 0-126.189044 0.019787-189.294458C436.680227 762.577165 389.550181 767.373713 343.47462 777.315572L343.47462 777.315572zM518.617673 761.626209c0.019787 63.104415-0.033577 126.228417 0.039573 189.331633 33.051791-6.984465 59.671343-30.338431 80.015749-56.240869 27.620473-34.687482 45.736191-75.798009 60.270137-117.402601-21.125477-5.102341-42.732228-7.563472-64.196075-10.674363C569.422428 764.175681 544.07941 761.781904 518.617673 761.626209L518.617673 761.626209zM207.349513 824.016709c50.493365 54.706309 116.543583 95.243625 188.574946 114.331084-41.726709-42.201987-67.783643-97.233875-86.210749-152.99347C274.278535 794.289664 239.828093 807.27506 207.349513 824.016709L207.349513 824.016709zM692.748013 785.319745c-18.543428 55.794371-44.545798 110.894813-86.360847 153.149165 71.982596-19.256144 138.081581-59.637766 188.595932-114.363661C762.705582 807.007841 728.066867 794.494325 692.748013 785.319745L692.748013 785.319745z" fill="#e6e6e6" /></svg>